<svg aria-hidden="true" style="position: absolute; width: 0; height: 0; overflow: hidden;" version="1.1" xmlns="http://www.w3.org/2000/svg" xmlns:xlink="http://www.w3.org/1999/xlink">
<defs>
<symbol id="icon-humidity" viewBox="0 0 27 32">
<path d="M13.333 25.595c-2.463 0-4.56-0.913-6.292-2.738s-2.597-4.048-2.597-6.667c0-1.25 0.227-2.445 0.681-3.586s1.097-2.148 1.931-3.021l6.278-6.607 6.278 6.607c0.833 0.873 1.477 1.88 1.931 3.021s0.681 2.336 0.681 3.586c0 2.619-0.866 4.841-2.597 6.667s-3.829 2.738-6.292 2.738zM6.667 16.19h13.333c0-0.932-0.167-1.82-0.5-2.664s-0.815-1.582-1.444-2.217l-4.722-5-4.722 5c-0.63 0.635-1.111 1.374-1.444 2.217s-0.5 1.731-0.5 2.664z"></path>
</symbol>
<symbol id="icon-sunrise" viewBox="0 0 33 32">
<path d="M4.24 6v-2.4h3.6v2.4h-3.6zM7.99 12.39l-1.71-1.68 2.55-2.55 1.71 1.68-2.55 2.55zM15.040 9.6c-1.66 0-3.075-0.585-4.245-1.755s-1.755-2.585-1.755-4.245h2.4c0 1 0.35 1.85 1.050 2.55s1.55 1.050 2.55 1.050 1.85-0.35 2.55-1.050c0.7-0.7 1.050-1.55 1.050-2.55h2.4c0 1.66-0.585 3.075-1.755 4.245s-2.585 1.755-4.245 1.755zM13.84 14.4v-3.6h2.4v3.6h-2.4zM22.090 12.39l-2.52-2.55 1.68-1.68 2.55 2.52-1.71 1.71zM22.24 6v-2.4h3.6v2.4h-3.6zM3.040 25.2v-2.4c0.76 0 1.325-0.2 1.695-0.6s1.145-0.6 2.325-0.6c1.18 0 1.955 0.2 2.325 0.6s0.915 0.6 1.635 0.6c0.76 0 1.325-0.2 1.695-0.6s1.145-0.6 2.325-0.6c1.14 0 1.915 0.2 2.325 0.6s0.975 0.6 1.695 0.6c0.76 0 1.315-0.2 1.665-0.6s1.115-0.6 2.295-0.6c1.18 0 1.955 0.2 2.325 0.6s0.935 0.6 1.695 0.6v2.4c-1.14 0-1.915-0.2-2.325-0.6s-0.975-0.6-1.695-0.6c-0.72 0-1.265 0.2-1.635 0.6s-1.145 0.6-2.325 0.6c-1.14 0-1.915-0.2-2.325-0.6s-0.975-0.6-1.695-0.6c-0.76 0-1.325 0.2-1.695 0.6s-1.145 0.6-2.325 0.6c-1.18 0-1.945-0.2-2.295-0.6s-0.905-0.6-1.665-0.6c-0.76 0-1.325 0.2-1.695 0.6s-1.145 0.6-2.325 0.6zM3.040 20.4v-2.4c0.76 0 1.325-0.2 1.695-0.6s1.145-0.6 2.325-0.6c1.14 0 1.905 0.2 2.295 0.6s0.945 0.6 1.665 0.6c0.76 0 1.325-0.2 1.695-0.6s1.145-0.6 2.325-0.6c1.14 0 1.91 0.2 2.31 0.6s0.95 0.6 1.65 0.6c0.76 0 1.325-0.2 1.695-0.6s1.145-0.6 2.325-0.6c1.14 0 1.915 0.2 2.325 0.6s0.975 0.6 1.695 0.6v2.4c-1.18 0-1.965-0.2-2.355-0.6s-0.945-0.6-1.665-0.6c-0.72 0-1.265 0.2-1.635 0.6s-1.145 0.6-2.325 0.6c-1.14 0-1.915-0.2-2.325-0.6s-0.975-0.6-1.695-0.6c-0.76 0-1.315 0.2-1.665 0.6s-1.115 0.6-2.295 0.6-1.965-0.2-2.355-0.6c-0.39-0.4-0.945-0.6-1.665-0.6s-1.285 0.2-1.695 0.6-1.185 0.6-2.325 0.6z"></path>
</symbol>
<symbol id="icon-sunset" viewBox="0 0 32 32">
<path d="M24.467 13.467l-1.867-1.933 2.867-2.8 1.867 1.867-2.867 2.867zM2.667 26.667v-2.667h26.667v2.667h-26.667zM14.667 9.333v-4h2.667v4h-2.667zM7.533 13.4l-2.8-2.867 1.867-1.867 2.867 2.867-1.933 1.867zM9.9 18.667h12.2c-0.511-1.2-1.311-2.167-2.4-2.9s-2.322-1.1-3.7-1.1-2.611 0.367-3.7 1.1c-1.089 0.733-1.889 1.7-2.4 2.9zM6.667 21.333c0-2.6 0.906-4.806 2.717-6.617s4.017-2.717 6.617-2.717c2.6 0 4.806 0.906 6.617 2.717s2.717 4.017 2.717 6.617h-18.667z"></path>
</symbol>
<symbol id="icon-wind" viewBox="0 0 34 32">
<path d="M15.042 25c-1.042 0-1.927-0.365-2.656-1.094s-1.094-1.615-1.094-2.656h2.5c0 0.354 0.12 0.651 0.359 0.891s0.536 0.359 0.891 0.359 0.651-0.12 0.891-0.359c0.24-0.24 0.359-0.536 0.359-0.891s-0.12-0.651-0.359-0.891c-0.24-0.24-0.536-0.359-0.891-0.359h-11.875v-2.5h11.875c1.042 0 1.927 0.365 2.656 1.094s1.094 1.615 1.094 2.656-0.365 1.927-1.094 2.656c-0.729 0.729-1.615 1.094-2.656 1.094zM3.167 12.5v-2.5h16.875c0.542 0 0.99-0.177 1.344-0.531s0.531-0.802 0.531-1.344-0.177-0.99-0.531-1.344c-0.354-0.354-0.802-0.531-1.344-0.531s-0.99 0.177-1.344 0.531c-0.354 0.354-0.531 0.802-0.531 1.344h-2.5c0-1.229 0.422-2.266 1.266-3.109s1.88-1.266 3.109-1.266 2.266 0.422 3.109 1.266c0.844 0.844 1.266 1.88 1.266 3.109s-0.422 2.266-1.266 3.109c-0.844 0.844-1.88 1.266-3.109 1.266h-16.875zM23.792 22.5v-2.5c0.542 0 0.99-0.177 1.344-0.531s0.531-0.802 0.531-1.344-0.177-0.99-0.531-1.344c-0.354-0.354-0.802-0.531-1.344-0.531h-20.625v-2.5h20.625c1.229 0 2.266 0.422 3.109 1.266s1.266 1.88 1.266 3.109-0.422 2.266-1.266 3.109c-0.844 0.844-1.88 1.266-3.109 1.266z"></path>
</symbol>
<symbol id="icon-temp" viewBox="0 0 32 32">
<path fill="#fff" style="fill: var(--color1, #fff)" d="M16 29.333c-1.844 0-3.417-0.65-4.717-1.95s-1.95-2.872-1.95-4.717c0-1.067 0.233-2.061 0.7-2.983s1.122-1.706 1.967-2.35v-10.667c0-1.111 0.389-2.056 1.167-2.833s1.722-1.167 2.833-1.167 2.056 0.389 2.833 1.167c0.778 0.778 1.167 1.722 1.167 2.833v10.667c0.844 0.644 1.5 1.428 1.967 2.35s0.7 1.917 0.7 2.983c0 1.844-0.65 3.417-1.95 4.717s-2.872 1.95-4.717 1.95zM14.667 14.667h2.667v-1.333h-1.333v-1.333h1.333v-2.667h-1.333v-1.333h1.333v-1.333c0-0.378-0.128-0.694-0.383-0.95s-0.572-0.383-0.95-0.383-0.694 0.128-0.95 0.383c-0.256 0.256-0.383 0.572-0.383 0.95v8z"></path>
</symbol>
<symbol id="icon-heart" viewBox="0 0 32 32">
<path fill="#fff" style="fill: var(--color1, #fff)" d="M16 28l-1.933-1.733c-2.244-2.022-4.1-3.767-5.567-5.233s-2.633-2.783-3.5-3.95c-0.867-1.167-1.472-2.239-1.817-3.217s-0.517-1.978-0.517-3c0-2.089 0.7-3.833 2.1-5.233s3.144-2.1 5.233-2.1c1.156 0 2.256 0.244 3.3 0.733s1.944 1.178 2.7 2.067c0.756-0.889 1.656-1.578 2.7-2.067s2.144-0.733 3.3-0.733c2.089 0 3.833 0.7 5.233 2.1s2.1 3.144 2.1 5.233c0 1.022-0.172 2.022-0.517 3s-0.95 2.050-1.817 3.217c-0.867 1.167-2.033 2.483-3.5 3.95s-3.322 3.211-5.567 5.233l-1.933 1.733zM16 24.4c2.133-1.911 3.889-3.55 5.267-4.917s2.467-2.556 3.267-3.567 1.356-1.911 1.667-2.7c0.311-0.789 0.467-1.572 0.467-2.35 0-1.333-0.444-2.444-1.333-3.333s-2-1.333-3.333-1.333c-1.044 0-2.011 0.294-2.9 0.883s-1.5 1.339-1.833 2.25h-2.533c-0.333-0.911-0.944-1.661-1.833-2.25s-1.856-0.883-2.9-0.883c-1.333 0-2.444 0.444-3.333 1.333s-1.333 2-1.333 3.333c0 0.778 0.156 1.561 0.467 2.35s0.867 1.689 1.667 2.7 1.889 2.2 3.267 3.567c1.378 1.367 3.133 3.006 5.267 4.917z"></path>
</symbol>
</defs>
</svg>
